<?xml version="1.0" standalone="no"?>
<svg viewBox="0 0 200 200" xmlns="http://www.w3.org/2000/svg">
  <path fill="#95D5DD" d="M48.1,-70.7C61.5,-66.3,70.8,-51.5,77.3,-35.8C83.7,-20.1,87.3,-3.5,81.4,9.1C75.5,21.6,60.2,30.2,48.3,39.1C36.4,48,27.9,57.3,16.1,65.9C4.2,74.5,-11.2,82.4,-23.8,79.4C-36.4,76.4,-46.2,62.5,-51.2,48.8C-56.1,35.1,-56.1,21.6,-61.1,6.9C-66.1,-7.7,-76.1,-23.5,-75.2,-38.1C-74.3,-52.6,-62.7,-66,-48.3,-69.9C-34,-73.8,-17,-68.3,0.2,-68.6C17.4,-68.9,34.8,-75.1,48.1,-70.7Z" transform="translate(100 100)" />
</svg>
