<?xml version="1.0" standalone="no"?>
<svg viewBox="0 0 200 200" xmlns="http://www.w3.org/2000/svg">
  <path fill="#9F2D9D" d="M38.8,-64.9C47.8,-54.6,50.8,-39.6,54.3,-26.4C57.7,-13.3,61.6,-1.9,64.5,12.5C67.4,26.9,69.4,44.4,62.6,56.8C55.8,69.1,40.2,76.4,25.6,75.2C11,74,-2.5,64.4,-13.6,56.5C-24.7,48.6,-33.3,42.5,-40.3,34.8C-47.3,27,-52.7,17.7,-55.2,7.3C-57.8,-3.2,-57.6,-14.7,-55.5,-27.9C-53.4,-41.1,-49.5,-56,-40,-66.2C-30.4,-76.3,-15.2,-81.6,-0.2,-81.4C14.9,-81.1,29.8,-75.3,38.8,-64.9Z" transform="translate(100 100)" />
</svg>
