<svg xmlns="http://www.w3.org/2000/svg" width="2392" height="1217" viewBox="0 0 2392 1217" fill="none">
<circle cx="1760.72" cy="717.317" r="6.5" fill="url(#paint0_linear_2407_2798)"/>
<circle cx="1760.72" cy="717.317" r="6.5" fill="#F6EBD8"/>
<circle cx="1760.72" cy="717.317" r="6.5" stroke="#2F2F2F" stroke-width="3" stroke-linecap="round"/>
<ellipse opacity="0.85" cx="941.374" cy="1001.43" rx="3.26965" ry="3.25137" transform="rotate(13.7274 941.374 1001.43)" fill="#222"/>
<ellipse opacity="0.85" cx="218.088" cy="3.93439" rx="3.26965" ry="3.25137" transform="rotate(13.7274 218.088 3.93439)" fill="#222"/>
<ellipse opacity="0.85" rx="3.26965" ry="3.25137" transform="matrix(-0.473799 0.880633 0.880633 0.473799 122.571 1087.09)" fill="#222"/>
<ellipse opacity="0.5" cx="1736.91" cy="523.286" rx="3.26965" ry="3.25137" transform="rotate(13.7274 1736.91 523.286)" fill="#222"/>
<ellipse opacity="0.5" cx="1766.82" cy="83.9154" rx="3.26965" ry="3.25137" transform="rotate(13.7274 1766.82 83.9154)" fill="#222"/>
<ellipse opacity="0.5" cx="986.271" cy="885.775" rx="4.87848" ry="4.8512" transform="rotate(13.7274 986.271 885.775)" fill="#222"/>
<ellipse opacity="0.5" cx="368.599" cy="696.835" rx="4.87848" ry="4.8512" transform="rotate(13.7274 368.599 696.835)" fill="#222"/>
<ellipse opacity="0.5" cx="2135.89" cy="527.348" rx="4.87848" ry="4.8512" transform="rotate(13.7274 2135.89 527.348)" fill="#222"/>
<circle cx="1135.89" cy="500" r="6.5" fill="#F3BF40"/>
<circle cx="1135.89" cy="500" r="6.5" stroke="#2F2F2F" stroke-width="3" stroke-linecap="round"/>
<ellipse opacity="0.5" cx="1823.25" cy="239.051" rx="4.87848" ry="4.8512" transform="rotate(13.7274 1823.25 239.051)" fill="#222"/>
<ellipse opacity="0.5" cx="2385.12" cy="737.649" rx="4.87848" ry="4.8512" transform="rotate(13.7274 2385.12 737.649)" fill="#222"/>
<ellipse opacity="0.5" cx="1984.48" cy="779.768" rx="4.87848" ry="4.8512" transform="rotate(13.7274 1984.48 779.768)" fill="#222"/>
<ellipse opacity="0.5" rx="4.87848" ry="4.8512" transform="matrix(-0.473799 0.880633 0.880633 0.473799 6.58351 1043.05)" fill="#222"/>
<ellipse opacity="0.5" rx="4.87848" ry="4.8512" transform="matrix(-0.473799 0.880633 0.880633 0.473799 252.675 1210.22)" fill="#222"/>
<ellipse opacity="0.85" cx="1581.36" cy="926.954" rx="5.12412" ry="5.09547" transform="rotate(-36.0091 1581.36 926.954)" fill="#222"/>
<ellipse opacity="0.85" cx="2334.06" cy="890.712" rx="5.12412" ry="5.09547" transform="rotate(-36.0091 2334.06 890.712)" fill="#222"/>
<ellipse opacity="0.85" cx="2124.64" cy="958.65" rx="5.12412" ry="5.09547" transform="rotate(-36.0091 2124.64 958.65)" fill="#222"/>
<circle cx="554.722" cy="246.567" r="6.5" fill="url(#paint1_linear_2407_2798)"/>
<circle cx="554.722" cy="246.567" r="6.5" fill="#F6EBD8"/>
<circle cx="554.722" cy="246.567" r="6.5" stroke="#2F2F2F" stroke-width="3" stroke-linecap="round"/>
<defs>
<linearGradient id="paint0_linear_2407_2798" x1="1763.97" y1="709.818" x2="1760.26" y2="739.682" gradientUnits="userSpaceOnUse">
<stop offset="0.212454" stop-color="#6D92D1"/>
<stop offset="0.593089" stop-color="#DD4F7F"/>
</linearGradient>
<linearGradient id="paint1_linear_2407_2798" x1="557.972" y1="239.068" x2="554.262" y2="268.931" gradientUnits="userSpaceOnUse">
<stop offset="0.212454" stop-color="#6D92D1"/>
<stop offset="0.593089" stop-color="#DD4F7F"/>
</linearGradient>
</defs>
</svg>