<svg fill="none" height="1182" viewBox="0 0 2404 1182" width="2404" xmlns="http://www.w3.org/2000/svg" xmlns:xlink="http://www.w3.org/1999/xlink"><linearGradient id="a"><stop offset="0" stop-color="#ffb843"/><stop offset=".936216" stop-color="#fd6641"/></linearGradient><linearGradient id="b" gradientUnits="userSpaceOnUse" x1="1816.84" x2="1791.49" xlink:href="#a" y1="122.757" y2="150.906"/><linearGradient id="c"><stop offset="0" stop-color="#6d92d1"/><stop offset="1" stop-color="#dd4f7f"/></linearGradient><linearGradient id="d" gradientUnits="userSpaceOnUse" x1="1775.15" x2="1766.55" xlink:href="#c" y1="360.275" y2="429.548"/><linearGradient id="e" gradientUnits="userSpaceOnUse" x1="801.653" x2="793.049" xlink:href="#c" y1="918.646" y2="987.919"/><linearGradient id="f" gradientUnits="userSpaceOnUse" x1="2001" x2="1992.39" xlink:href="#c" y1="553.484" y2="622.757"/><linearGradient id="g" gradientUnits="userSpaceOnUse" x1="162.325" x2="153.721" xlink:href="#c" y1="302.32" y2="371.593"/><linearGradient id="h" gradientUnits="userSpaceOnUse" x1="1387.14" x2="1395.14" xlink:href="#c" y1="66.212" y2="132.897"/><linearGradient id="i" gradientUnits="userSpaceOnUse" x1="739.686" x2="719.678" xlink:href="#a" y1="115.939" y2="138.161"/><linearGradient id="j" gradientUnits="userSpaceOnUse" x1="2055.54" x2="2018.8" xlink:href="#a" y1="706.429" y2="747.229"/><linearGradient id="k" gradientUnits="userSpaceOnUse" x1="274.04" x2="254.032" xlink:href="#a" y1="776.123" y2="798.346"/><linearGradient id="l" gradientUnits="userSpaceOnUse" x1="971.229" x2="942.55" xlink:href="#a" y1="1111.17" y2="1143.03"/><g stroke="#2f2f2f" stroke-linecap="round" stroke-width="3"><g fill="#f4e7d2"><path d="m1630.96 468.878c.32-.871 1.56-.871 1.88 0l1.97 5.33c.1.273.32.489.59.59l5.33 1.973c.87.322.87 1.553 0 1.875l-5.33 1.972c-.27.102-.49.318-.59.591l-1.97 5.33c-.32.871-1.56.871-1.88 0l-1.97-5.33c-.1-.273-.32-.489-.59-.591l-5.33-1.972c-.87-.322-.87-1.553 0-1.875l5.33-1.973c.27-.101.49-.317.59-.59z"/><path d="m2147.31 32.513c.32-.8706 1.55-.8706 1.88 0l1.97 5.3298c.1.2737.31.4895.59.5908l5.33 1.9722c.87.3222.87 1.5536 0 1.8757l-5.33 1.9722c-.28.1013-.49.3171-.59.5908l-1.97 5.3298c-.33.8706-1.56.8706-1.88 0l-1.97-5.3298c-.1-.2737-.32-.4895-.59-.5908l-5.33-1.9722c-.87-.3221-.87-1.5535 0-1.8757l5.33-1.9722c.27-.1013.49-.3171.59-.5908z"/><path d="m61.7254 65.7757c.3221-.8706 1.5535-.8706 1.8757 0l1.9722 5.3298c.1013.2737.3171.4895.5908.5908l5.3298 1.9722c.8706.3222.8706 1.5536 0 1.8757l-5.3298 1.9722c-.2737.1013-.4895.3171-.5908.5908l-1.9722 5.3298c-.3222.8706-1.5536.8706-1.8757 0l-1.9722-5.3298c-.1013-.2737-.3171-.4895-.5908-.5908l-5.3298-1.9722c-.8706-.3221-.8706-1.5535 0-1.8757l5.3298-1.9722c.2737-.1013.4895-.3171.5908-.5908z"/><path d="m1016.84 97.1869c.32-.8707 1.55-.8707 1.87 0l1.97 5.3301c.11.273.32.489.6.59l5.33 1.973c.87.322.87 1.553 0 1.875l-5.33 1.973c-.28.101-.49.317-.6.59l-1.97 5.33c-.32.871-1.55.871-1.87 0l-1.98-5.33c-.1-.273-.31-.489-.59-.59l-5.33-1.973c-.87-.322-.87-1.553 0-1.875l5.33-1.973c.28-.101.49-.317.59-.59z"/><path d="m1705.7 540.588c.32-.871 1.55-.871 1.87 0l6.17 16.673c.1.274.32.49.59.591l16.68 6.17c.87.322.87 1.554 0 1.876l-16.68 6.17c-.27.101-.49.317-.59.59l-6.17 16.674c-.32.871-1.55.871-1.87 0l-6.17-16.674c-.1-.273-.32-.489-.59-.59l-16.68-6.17c-.87-.322-.87-1.554 0-1.876l16.68-6.17c.27-.101.49-.317.59-.591z"/><path d="m2375.5 383.483c.32-.87 1.55-.87 1.87 0l6.17 16.674c.11.274.32.49.6.591l16.67 6.17c.87.322.87 1.553 0 1.875l-16.67 6.17c-.28.102-.49.317-.6.591l-6.17 16.674c-.32.87-1.55.87-1.87 0l-6.17-16.674c-.1-.274-.32-.489-.59-.591l-16.68-6.17c-.87-.322-.87-1.553 0-1.875l16.68-6.17c.27-.101.49-.317.59-.591z"/><path d="m2070.44 950.651c.32-.871 1.56-.871 1.88 0l3.48 9.41c.1.274.32.489.59.591l9.41 3.482c.87.322.87 1.553 0 1.875l-9.41 3.483c-.27.101-.49.317-.59.59l-3.48 9.41c-.32.871-1.56.871-1.88 0l-3.48-9.41c-.1-.273-.32-.489-.59-.59l-9.41-3.483c-.87-.322-.87-1.553 0-1.875l9.41-3.482c.27-.102.49-.317.59-.591z"/><path d="m529.597 1147.88c.322-.87 1.553-.87 1.876 0l2.953 7.98c.102.27.318.49.591.59l7.983 2.95c.871.33.871 1.56 0 1.88l-7.983 2.95c-.273.11-.489.32-.591.6l-2.953 7.98c-.323.87-1.554.87-1.876 0l-2.954-7.98c-.101-.28-.317-.49-.591-.6l-7.983-2.95c-.87-.32-.87-1.55 0-1.88l7.983-2.95c.274-.1.49-.32.591-.59z"/><path d="m1465.1 792.878c.32-.871 1.55-.871 1.87 0l3.36 9.077c.1.274.32.49.59.591l9.08 3.359c.87.322.87 1.554 0 1.876l-9.08 3.359c-.27.101-.49.317-.59.591l-3.36 9.078c-.32.87-1.55.87-1.87 0l-3.36-9.078c-.1-.274-.32-.49-.59-.591l-9.08-3.359c-.87-.322-.87-1.554 0-1.876l9.08-3.359c.27-.101.49-.317.59-.591z"/><path d="m2217.8 756.636c.32-.871 1.55-.871 1.87 0l3.36 9.078c.1.274.32.489.59.591l9.08 3.359c.87.322.87 1.553 0 1.875l-9.08 3.359c-.27.102-.49.318-.59.591l-3.36 9.078c-.32.871-1.55.871-1.87 0l-3.36-9.078c-.1-.273-.32-.489-.59-.591l-9.08-3.359c-.87-.322-.87-1.553 0-1.875l9.08-3.359c.27-.102.49-.317.59-.591z"/><path d="m2000.29 683.896c.32-.871 1.55-.871 1.88 0l3.36 9.078c.1.274.31.489.59.591l9.07 3.359c.87.322.87 1.553 0 1.875l-9.07 3.359c-.28.102-.49.318-.59.591l-3.36 9.078c-.33.871-1.56.871-1.88 0l-3.36-9.078c-.1-.273-.32-.489-.59-.591l-9.08-3.359c-.87-.322-.87-1.553 0-1.875l9.08-3.359c.27-.102.49-.317.59-.591z"/><path d="m1829.77 671.534c.32-.871 1.55-.871 1.87 0l3.36 9.078c.1.273.32.489.59.59l9.08 3.359c.87.323.87 1.554 0 1.876l-9.08 3.359c-.27.101-.49.317-.59.591l-3.36 9.078c-.32.87-1.55.87-1.87 0l-3.36-9.078c-.1-.274-.32-.49-.59-.591l-9.08-3.359c-.87-.322-.87-1.553 0-1.876l9.08-3.359c.27-.101.49-.317.59-.59z"/><path d="m2166.62 289.261c.32-.871 1.55-.871 1.87 0l3.36 9.077c.1.274.32.49.59.591l9.08 3.359c.87.322.87 1.554 0 1.876l-9.08 3.359c-.27.101-.49.317-.59.591l-3.36 9.078c-.32.87-1.55.87-1.87 0l-3.36-9.078c-.1-.274-.32-.49-.59-.591l-9.08-3.359c-.87-.322-.87-1.554 0-1.876l9.08-3.359c.27-.101.49-.317.59-.591z"/></g><path d="m1802.47 122.128c.32-.87 1.55-.87 1.88 0l4.03 10.903c.1.274.32.489.59.591l10.9 4.034c.87.322.87 1.553 0 1.876l-10.9 4.034c-.27.101-.49.317-.59.591l-4.03 10.902c-.33.871-1.56.871-1.88 0l-4.03-10.902c-.1-.274-.32-.49-.59-.591l-10.91-4.034c-.87-.323-.87-1.554 0-1.876l10.91-4.034c.27-.102.49-.317.59-.591z" fill="url(#b)"/><path d="m1766.67 365.128c.33-.871 1.56-.871 1.88 0l2.97 8.04c.11.273.32.489.6.59l8.03 2.975c.88.322.88 1.554 0 1.876l-8.03 2.975c-.28.101-.49.317-.6.591l-2.97 8.039c-.32.871-1.55.871-1.88 0l-2.97-8.039c-.1-.274-.32-.49-.59-.591l-8.04-2.975c-.87-.322-.87-1.554 0-1.876l8.04-2.975c.27-.101.49-.317.59-.59z" fill="url(#d)"/><path d="m793.177 923.499c.322-.871 1.553-.871 1.875 0l2.975 8.04c.102.273.317.489.591.59l8.04 2.975c.87.323.87 1.554 0 1.876l-8.04 2.975c-.274.101-.489.317-.591.591l-2.975 8.039c-.322.871-1.553.871-1.875 0l-2.975-8.039c-.102-.274-.317-.49-.591-.591l-8.04-2.975c-.87-.322-.87-1.553 0-1.876l8.04-2.975c.274-.101.489-.317.591-.59z" fill="url(#e)"/><path d="m1992.52 558.337c.32-.871 1.55-.871 1.88 0l2.97 8.04c.1.273.32.489.59.59l8.04 2.975c.87.322.87 1.554 0 1.876l-8.04 2.975c-.27.101-.49.317-.59.591l-2.97 8.039c-.33.871-1.56.871-1.88 0l-2.97-8.039c-.11-.274-.32-.49-.6-.591l-8.03-2.975c-.88-.322-.88-1.554 0-1.876l8.03-2.975c.28-.101.49-.317.6-.59z" fill="url(#f)"/><path d="m153.849 307.173c.322-.87 1.553-.87 1.875 0l2.975 8.04c.102.273.317.489.591.591l8.04 2.974c.87.323.87 1.554 0 1.876l-8.04 2.975c-.274.101-.489.317-.591.591l-2.975 8.039c-.322.871-1.553.871-1.875 0l-2.975-8.039c-.101-.274-.317-.49-.591-.591l-8.04-2.975c-.87-.322-.87-1.553 0-1.876l8.04-2.974c.274-.102.49-.318.591-.591z" fill="url(#g)"/><path d="m635.327 889.878c.322-.87 1.553-.87 1.875 0l5.042 13.625c.101.274.317.49.591.591l13.625 5.042c.87.322.87 1.553 0 1.875l-13.625 5.042c-.274.101-.49.317-.591.591l-5.042 13.625c-.322.87-1.553.87-1.875 0l-5.042-13.625c-.101-.274-.317-.49-.591-.591l-13.625-5.042c-.87-.322-.87-1.553 0-1.875l13.625-5.042c.274-.101.49-.317.591-.591z" fill="#f4e7d2"/><path d="m22.1124 260.301c.3221-.87 1.5535-.87 1.8757 0l5.0416 13.625c.1013.274.3171.49.5908.591l13.6248 5.042c.8706.322.8706 1.553 0 1.875l-13.6248 5.042c-.2737.101-.4895.317-.5908.591l-5.0416 13.625c-.3222.87-1.5536.87-1.8757 0l-5.0416-13.625c-.1013-.274-.3171-.49-.5909-.591l-13.62479-5.042c-.87062-.322-.87062-1.553 0-1.875l13.62479-5.042c.2738-.101.4896-.317.5909-.591z" fill="#f4e7d2"/><path d="m513.1 706.878c.322-.87 1.555-.87 1.877 0l2.55 6.892c.101.273.317.489.591.59l6.891 2.55c.871.322.871 1.554 0 1.876l-6.891 2.55c-.274.101-.49.317-.591.591l-2.55 6.891c-.322.871-1.555.871-1.877 0l-2.549-6.891c-.101-.274-.317-.49-.591-.591l-6.891-2.55c-.87-.322-.87-1.554 0-1.876l6.891-2.55c.274-.101.49-.317.591-.59z" fill="#f4e7d2"/><path d="m685.659 70.9759c.322-.8706 1.553-.8706 1.875 0l4.98 13.4572c.101.2737.317.4896.591.5908l13.457 4.9797c.871.3221.871 1.5535 0 1.8757l-13.457 4.9796c-.274.1013-.49.3171-.591.5908l-4.98 13.4573c-.322.871-1.553.871-1.875 0l-4.98-13.4573c-.101-.2737-.317-.4895-.591-.5908l-13.457-4.9796c-.871-.3222-.871-1.5536 0-1.8757l13.457-4.9797c.274-.1012.49-.3171.591-.5908z" fill="#f4e7d2"/><path d="m220.013 731.16c.322-.87 1.553-.87 1.875 0l4.98 13.457c.101.274.317.49.591.591l13.457 4.98c.871.322.871 1.553 0 1.876l-13.457 4.979c-.274.101-.49.317-.591.591l-4.98 13.457c-.322.871-1.553.871-1.875 0l-4.98-13.457c-.101-.274-.317-.49-.591-.591l-13.457-4.979c-.871-.323-.871-1.554 0-1.876l13.457-4.98c.274-.101.49-.317.591-.591z" fill="#f4e7d2"/><path d="m368.74 1004.08c.322-.88 1.553-.88 1.875 0l2.808 7.58c.102.28.317.49.591.59l7.588 2.81c.871.32.871 1.56 0 1.88l-7.588 2.81c-.274.1-.489.31-.591.59l-2.808 7.58c-.322.88-1.553.88-1.875 0l-2.808-7.58c-.101-.28-.317-.49-.591-.59l-7.588-2.81c-.871-.32-.871-1.56 0-1.88l7.588-2.81c.274-.1.49-.31.591-.59z" fill="#f4e7d2"/><path d="m36.5716 1155.06c.3221-.88 1.5535-.88 1.8757 0l2.8079 7.58c.1012.28.3171.49.5908.59l7.5882 2.81c.8706.32.8706 1.56 0 1.88l-7.5882 2.81c-.2737.1-.4896.31-.5908.59l-2.8079 7.58c-.3222.88-1.5536.88-1.8757 0l-2.8079-7.58c-.1013-.28-.3171-.49-.5908-.59l-7.5882-2.81c-.8707-.32-.8707-1.56 0-1.88l7.5882-2.81c.2737-.1.4895-.31.5908-.59z" fill="#f4e7d2"/><path d="m732.44 329.611c-.318-.88-1.562-.88-1.881 0l-2.642 7.304c-.1.274-.314.492-.587.595l-7.204 2.727c-.862.326-.862 1.544 0 1.87l7.204 2.727c.273.103.487.32.587.595l2.642 7.304c.319.88 1.563.88 1.881 0l2.643-7.304c.099-.275.313-.492.586-.595l7.205-2.727c.861-.326.861-1.544 0-1.87l-7.205-2.727c-.273-.103-.487-.321-.586-.595z" fill="#f4e7d2"/><path d="m1395.57 70.8811c-.33-.8566-1.54-.8566-1.87 0l-2.95 7.7147c-.1.2725-.32.4858-.6.5841l-7.88 2.8199c-.88.3163-.88 1.5669 0 1.8832l7.88 2.8199c.28.0983.5.3116.6.5841l2.95 7.7147c.33.8566 1.54.8566 1.87 0l2.95-7.7147c.11-.2725.33-.4858.6-.5841l7.89-2.8199c.88-.3163.88-1.5669 0-1.8832l-7.89-2.8199c-.27-.0983-.49-.3116-.6-.5841z" fill="url(#h)"/><path d="m728.148 115.976c.322-.871 1.553-.871 1.876 0l2.953 7.983c.102.274.318.489.591.591l7.983 2.954c.871.322.871 1.553 0 1.875l-7.983 2.954c-.273.101-.489.317-.591.591l-2.953 7.983c-.323.871-1.554.871-1.876 0l-2.954-7.983c-.101-.274-.317-.49-.591-.591l-7.983-2.954c-.87-.322-.87-1.553 0-1.875l7.983-2.954c.274-.102.49-.317.591-.591z" fill="url(#i)"/><path d="m2035.14 704.378c.32-.87 1.55-.87 1.87.001l6.34 17.135c.11.274.32.49.6.591l17.13 6.341c.87.322.87 1.553 0 1.875l-17.13 6.341c-.28.102-.49.317-.6.591l-6.34 17.136c-.32.87-1.55.87-1.87 0l-6.34-17.136c-.1-.274-.32-.489-.59-.591l-17.14-6.341c-.87-.322-.87-1.553 0-1.875l17.14-6.341c.27-.101.49-.317.59-.591z" fill="url(#j)"/><path d="m262.502 776.16c.322-.87 1.553-.87 1.876 0l2.953 7.983c.102.274.318.49.591.591l7.983 2.954c.871.322.871 1.553 0 1.876l-7.983 2.954c-.273.101-.489.317-.591.59l-2.953 7.983c-.323.871-1.554.871-1.876 0l-2.954-7.983c-.101-.273-.317-.489-.591-.59l-7.983-2.954c-.87-.323-.87-1.554 0-1.876l7.983-2.954c.274-.101.49-.317.591-.591z" fill="url(#k)"/><path d="m1458.43 2.94273c-.32-.87969-1.56-.87969-1.88.00001l-4.85 13.39166c-.1.2744-.31.4917-.58.595l-13.16 4.9791c-.86.326-.86 1.5445 0 1.8705l13.16 4.9791c.27.1033.48.3206.58.595l4.85 13.3917c.32.8797 1.56.8797 1.88 0l4.84-13.3917c.1-.2744.32-.4917.59-.595l13.16-4.9791c.86-.326.86-1.5445 0-1.8705l-13.16-4.9791c-.27-.1033-.49-.3206-.59-.595z" fill="#f4e7d2"/><path d="m1299.48 80.7748c-.32-.8797-1.57-.8797-1.89 0l-3.25 8.9934c-.1.2744-.31.4918-.59.5951l-8.85 3.3515c-.86.326-.86 1.5446 0 1.8706l8.85 3.3515c.28.1033.49.3207.59.5951l3.25 8.993c.32.88 1.57.88 1.89 0l3.25-8.993c.1-.2744.31-.4918.59-.5951l8.85-3.3515c.86-.326.86-1.5446 0-1.8706l-8.85-3.3515c-.28-.1033-.49-.3207-.59-.5951z" fill="#f4e7d2"/><path d="m955.096 1110.13c.322-.87 1.554-.87 1.876 0l4.71 12.73c.101.27.317.49.59.59l12.728 4.71c.87.32.87 1.55 0 1.87l-12.728 4.71c-.273.1-.489.32-.59.59l-4.71 12.73c-.322.87-1.554.87-1.876 0l-4.709-12.73c-.101-.27-.317-.49-.591-.59l-12.727-4.71c-.871-.32-.871-1.55 0-1.87l12.727-4.71c.274-.1.49-.32.591-.59z" fill="url(#l)"/></g></svg>