<svg width="50" height="50" viewBox="0 0 50 50" fill="none" xmlns="http://www.w3.org/2000/svg">
<rect x="1" y="1" width="48" height="48" rx="24" stroke="white" stroke-width="2"/>
<path d="M30.5 19.5H30.51M20 15H30C32.7614 15 35 17.2386 35 20V30C35 32.7614 32.7614 35 30 35H20C17.2386 35 15 32.7614 15 30V20C15 17.2386 17.2386 15 20 15ZM29 24.37C29.1234 25.2022 28.9813 26.0522 28.5938 26.799C28.2063 27.5458 27.5931 28.1514 26.8416 28.5297C26.0901 28.9079 25.2384 29.0396 24.4078 28.9059C23.5771 28.7723 22.8098 28.3801 22.2148 27.7852C21.6199 27.1902 21.2277 26.4229 21.0941 25.5922C20.9604 24.7616 21.0921 23.9099 21.4703 23.1584C21.8486 22.4069 22.4542 21.7937 23.201 21.4062C23.9478 21.0187 24.7978 20.8766 25.63 21C26.4789 21.1259 27.2649 21.5215 27.8717 22.1283C28.4785 22.7351 28.8741 23.5211 29 24.37Z" stroke="white" stroke-width="2" stroke-linecap="round" stroke-linejoin="round"/>
</svg>
