<svg width="50" height="50" viewBox="0 0 50 50" fill="none" xmlns="http://www.w3.org/2000/svg">
<rect x="1" y="1" width="48" height="48" rx="24" stroke="white" stroke-width="2"/>
<path d="M36 16C35.0424 16.6755 33.9821 17.1922 32.86 17.53C32.2577 16.8376 31.4573 16.3467 30.567 16.124C29.6767 15.9012 28.7395 15.9572 27.8821 16.2845C27.0247 16.6118 26.2884 17.1944 25.773 17.9538C25.2575 18.7131 24.9877 19.6124 25 20.53V21.53C23.2426 21.5756 21.5013 21.1859 19.931 20.3955C18.3607 19.6051 17.0103 18.4387 16 17C16 17 12 26 21 30C18.9405 31.398 16.4872 32.099 14 32C23 37 34 32 34 20.5C33.9991 20.2215 33.9723 19.9436 33.92 19.67C34.9406 18.6635 35.6608 17.3928 36 16Z" stroke="white" stroke-width="2" stroke-linecap="round" stroke-linejoin="round"/>
</svg>
