<svg width="50" height="50" viewBox="0 0 50 50" fill="none" xmlns="http://www.w3.org/2000/svg">
<rect x="1" y="1" width="48" height="48" rx="24" stroke="white" stroke-width="2"/>
<path d="M18.5328 18.2072C21.3044 18.0691 23.4601 18 25 18C26.54 18 28.6965 18.0691 31.4695 18.2073C32.9705 18.2821 34.1846 19.4559 34.3098 20.9536C34.4366 22.4706 34.5 23.8067 34.5 24.9619C34.5 26.1313 34.435 27.486 34.3051 29.0261C34.1803 30.5052 32.9926 31.6706 31.5115 31.7675C29.1408 31.9225 26.9703 32 25 32C23.03 32 20.8603 31.9225 18.4909 31.7675C17.0102 31.6707 15.8228 30.506 15.6974 29.0275C15.5658 27.4759 15.5 26.1207 15.5 24.9619C15.5 23.817 15.5642 22.4805 15.6927 20.9522C15.8185 19.4551 17.0323 18.282 18.5328 18.2072Z" stroke="white" stroke-width="2" stroke-linejoin="round"/>
<path d="M23.5 22.8046V27.203C23.5 27.4397 23.6919 27.6316 23.9285 27.6316C24.0126 27.6316 24.0948 27.6069 24.1649 27.5606L27.4637 25.3803C27.6612 25.2498 27.7154 24.9839 27.5849 24.7864C27.5537 24.7392 27.5135 24.6987 27.4665 24.6671L24.1677 22.449C23.9713 22.3169 23.705 22.3691 23.5729 22.5655C23.5254 22.6362 23.5 22.7194 23.5 22.8046Z" stroke="white" stroke-width="2" stroke-linejoin="round"/>
</svg>
